<svg xmlns="http://www.w3.org/2000/svg" version="1.1" xmlns:xlink="http://www.w3.org/1999/xlink" xmlns:svgjs="http://svgjs.dev/svgjs" width="1500" height="261" viewBox="0 0 1500 261"><g transform="matrix(1,0,0,1,-0.9090909090909918,0.7043500298143783)"><svg viewBox="0 0 396 69" data-background-color="#ffffff" preserveAspectRatio="xMidYMid meet" height="261" width="1500" xmlns="http://www.w3.org/2000/svg" xmlns:xlink="http://www.w3.org/1999/xlink"><g id="tight-bounds" transform="matrix(1,0,0,1,0.2400000000000091,-0.18620747914633284)"><svg viewBox="0 0 395.52 69.37241495829265" height="69.37241495829265" width="395.52"><g><svg viewBox="0 0 497.75449019356654 87.303881070645" height="69.37241495829265" width="395.52"><g transform="matrix(1,0,0,1,0,12.065876472136903)"><svg viewBox="0 0 395.52 63.1721281263712" height="63.1721281263712" width="395.52"><g id="textblocktransform"><svg viewBox="0 0 395.52 63.1721281263712" height="63.1721281263712" width="395.52" id="textblock"><g><svg viewBox="0 0 395.52 63.1721281263712" height="63.1721281263712" width="395.52"><g transform="matrix(1,0,0,1,0,0)"><svg width="395.52" viewBox="2.35 -35.65 227.88 36.4" height="63.1721281263712" data-palette-color="#919591"><path d="M29.2-6.45L29.2-6.45Q29.2-4.65 28.1-3.3 27-1.95 25.15-1.07 23.3-0.2 21.05 0.25 18.8 0.7 16.5 0.7L16.5 0.7Q9.85 0.7 6.1-4.05 2.35-8.8 2.35-17.45L2.35-17.45Q2.35-26.1 6.23-30.85 10.1-35.6 17-35.6L17-35.6Q19.05-35.6 21.05-35.2 23.05-34.8 24.7-34.05 26.35-33.3 27.35-32.18 28.35-31.05 28.35-29.55L28.35-29.55Q28.35-28.05 26.95-26.78 25.55-25.5 22.75-25.55L22.75-25.55Q22.4-29.55 20.98-31.4 19.55-33.25 17.1-33.25L17.1-33.25Q13.45-33.25 11.75-29.3 10.05-25.35 10.05-17.45L10.05-17.45Q10.05-9.55 11.7-5.6 13.35-1.65 16.9-1.65L16.9-1.65Q18.65-1.65 19.98-2.55 21.3-3.45 22.15-5.3 23-7.15 23.35-9.95L23.35-9.95Q24.75-10.15 26.08-9.83 27.4-9.5 28.3-8.68 29.2-7.85 29.2-6.45ZM54.2 0.5L54.2 0.5Q51.6 0.5 50.12-1.38 48.65-3.25 48.65-8.05L48.65-8.05 48.65-9.95 49.85-9.7Q49.35-6.95 47.95-4.63 46.55-2.3 44.35-0.9 42.15 0.5 39.15 0.5L39.15 0.5Q36.3 0.5 34.42-1 32.55-2.5 32.55-5.4L32.55-5.4Q32.55-7.8 33.87-9.47 35.2-11.15 37.22-12.2 39.25-13.25 41.3-13.85L41.3-13.85Q43.3-14.4 45.07-14.63 46.85-14.85 48.25-14.9L48.25-14.9 48.25-16.15Q48.25-20.2 47.35-22.25 46.45-24.3 44.1-24.3L44.1-24.3Q43.15-24.3 42.37-23.93 41.6-23.55 41.17-22.75 40.75-21.95 40.75-20.6L40.75-20.6Q40.75-19.6 41.1-18.55 41.45-17.5 42.5-16.9L42.5-16.9Q41.9-16.3 40.92-16 39.95-15.7 38.85-15.7L38.85-15.7Q36.4-15.7 35.07-17.05 33.75-18.4 33.75-20.35L33.75-20.35Q33.75-23.35 36.67-24.95 39.6-26.55 44.5-26.55L44.5-26.55Q50.1-26.55 52.7-24.05 55.3-21.55 55.3-15.7L55.3-15.7 55.3-7.25Q55.3-4.6 56.95-4.6L56.95-4.6Q57.2-4.6 57.62-4.75 58.05-4.9 58.3-5.25L58.3-5.25Q58.65-4.75 58.8-4.15 58.95-3.55 58.95-3.1L58.95-3.1Q58.95-1.65 57.67-0.58 56.4 0.5 54.2 0.5ZM42.75-3.95L42.75-3.95Q43.7-4.05 44.7-4.73 45.7-5.4 46.55-6.58 47.4-7.75 47.92-9.3 48.45-10.85 48.45-12.7L48.45-12.7Q47.5-12.7 46.5-12.63 45.5-12.55 44.57-12.3 43.65-12.05 42.85-11.6L42.85-11.6Q41.65-10.95 40.87-9.78 40.1-8.6 40.1-7.1L40.1-7.1Q40.1-5.85 40.72-4.83 41.35-3.8 42.75-3.95ZM66.75 0.55L66.75 0.55Q65.2 0.55 63.97-0.48 62.75-1.5 62.75-3.35L62.75-3.35 62.75-18.8Q62.75-20.25 62.42-20.85 62.1-21.45 61.45-21.45L61.45-21.45Q61.2-21.45 60.8-21.35 60.4-21.25 60.15-20.85L60.15-20.85Q59.5-21.85 59.5-23L59.5-23Q59.5-24.55 60.55-25.55 61.6-26.55 63.6-26.55L63.6-26.55Q66-26.55 67.42-24.85 68.84-23.15 68.75-19.6L68.75-19.6 68.75-18.3 68.15-18.8Q68.84-22.75 70.62-24.65 72.4-26.55 75.3-26.55L75.3-26.55Q78.15-26.55 79.97-25.03 81.8-23.5 81.8-20.8L81.8-20.8Q81.8-18.85 80.59-17.57 79.4-16.3 77.59-16.25L77.59-16.25Q75.4-16.25 74.45-17.35L74.45-17.35Q75-18.35 75.17-19.07 75.34-19.8 75.34-20.8L75.34-20.8Q75.34-22.05 74.84-22.73 74.34-23.4 73.3-23.4L73.3-23.4Q72.15-23.4 71.3-22.13 70.45-20.85 70-18.25 69.55-15.65 69.55-11.75L69.55-11.75Q69.55-9.4 69.57-7.78 69.59-6.15 69.7-5 69.8-3.85 70.02-2.9 70.25-1.95 70.7-0.95L70.7-0.95Q70.25-0.55 69.22-0.03 68.2 0.5 66.75 0.55ZM96.14 0.7L96.14 0.7Q90.34 0.7 86.87-2.88 83.39-6.45 83.39-13L83.39-13Q83.39-19.3 86.69-22.93 89.99-26.55 96.19-26.55L96.19-26.55Q99.09-26.55 101.42-25.7 103.74-24.85 105.12-23.18 106.49-21.5 106.49-18.95L106.49-18.95Q106.49-15.25 103.49-13.28 100.49-11.3 95.74-11.3L95.74-11.3Q93.74-11.3 91.47-11.43 89.19-11.55 86.54-12.2L86.54-12.2 86.74-14.25Q87.79-14.15 88.92-14 90.04-13.85 91.69-13.8L91.69-13.8Q92.79-13.8 94.07-13.95 95.34-14.1 96.49-14.73 97.64-15.35 98.37-16.63 99.09-17.9 99.09-20.1L99.09-20.1Q99.09-21.8 98.64-22.68 98.19-23.55 97.47-23.9 96.74-24.25 95.94-24.25L95.94-24.25Q93.49-24.25 92.12-21.5 90.74-18.75 90.74-13.9L90.74-13.9Q90.74-10.05 91.59-7.78 92.44-5.5 94.09-4.53 95.74-3.55 98.09-3.55L98.09-3.55Q100.89-3.55 102.67-4.65 104.44-5.75 105.24-7.3L105.24-7.3Q105.79-7.1 106.02-6.45 106.24-5.8 105.69-4.4L105.69-4.4Q104.74-1.95 102.22-0.63 99.69 0.7 96.14 0.7ZM114.04 0.75L114.04 0.75Q113.29 0.75 112.54 0.5 111.79 0.25 111.19-0.15L111.19-0.15Q111.84-1.85 112.02-3.88 112.19-5.9 112.19-7.3L112.19-7.3 112.19-27.6Q112.19-29.85 112.12-31.5 112.04-33.15 111.84-34.7L111.84-34.7Q112.24-35.15 113.27-35.35 114.29-35.55 115.32-35.52 116.34-35.5 116.64-35.2L116.64-35.2Q118.44-32.65 120.69-29.73 122.94-26.8 125.24-23.8 127.54-20.8 129.64-18 131.74-15.2 133.29-12.88 134.84-10.55 135.49-8.95L135.49-8.95 133.69-30.95Q133.49-32.9 134.34-34.15 135.19-35.4 136.99-35.5L136.99-35.5Q137.69-35.55 138.47-35.35 139.24-35.15 139.84-34.75L139.84-34.75Q139.29-33.2 139.17-31.3 139.04-29.4 139.04-28.2L139.04-28.2 138.99-7.15Q138.99-4.9 139.07-3.3 139.14-1.7 139.34-0.15L139.34-0.15Q138.99 0.25 138.09 0.48 137.19 0.7 136.22 0.7 135.24 0.7 134.64 0.4L134.64 0.4Q131.69-3.05 129.32-5.93 126.94-8.8 125.09-11.2 123.24-13.6 121.82-15.58 120.39-17.55 119.29-19.23 118.19-20.9 117.39-22.28 116.59-23.65 115.99-24.85L115.99-24.85 117.49-3.25Q117.64-1.45 116.49-0.35 115.34 0.75 114.04 0.75ZM157.04 0.7L157.04 0.7Q151.24 0.7 147.76-2.88 144.29-6.45 144.29-13L144.29-13Q144.29-19.3 147.59-22.93 150.89-26.55 157.09-26.55L157.09-26.55Q159.99-26.55 162.31-25.7 164.64-24.85 166.01-23.18 167.39-21.5 167.39-18.95L167.39-18.95Q167.39-15.25 164.39-13.28 161.39-11.3 156.64-11.3L156.64-11.3Q154.64-11.3 152.36-11.43 150.09-11.55 147.44-12.2L147.44-12.2 147.64-14.25Q148.69-14.15 149.81-14 150.94-13.85 152.59-13.8L152.59-13.8Q153.69-13.8 154.96-13.95 156.24-14.1 157.39-14.73 158.54-15.35 159.26-16.63 159.99-17.9 159.99-20.1L159.99-20.1Q159.99-21.8 159.54-22.68 159.09-23.55 158.36-23.9 157.64-24.25 156.84-24.25L156.84-24.25Q154.39-24.25 153.01-21.5 151.64-18.75 151.64-13.9L151.64-13.9Q151.64-10.05 152.49-7.78 153.34-5.5 154.99-4.53 156.64-3.55 158.99-3.55L158.99-3.55Q161.79-3.55 163.56-4.65 165.34-5.75 166.14-7.3L166.14-7.3Q166.69-7.1 166.91-6.45 167.14-5.8 166.59-4.4L166.59-4.4Q165.64-1.95 163.11-0.63 160.59 0.7 157.04 0.7ZM179.09 0.5L179.09 0.5Q176.03 0.5 174.44-1.43 172.84-3.35 172.84-6.65L172.84-6.65 172.84-29Q172.84-30.65 173.96-31.58 175.09-32.5 176.78-32.5L176.78-32.5Q178.28-32.5 179.28-31.95 180.28-31.4 180.69-31L180.69-31Q180.03-28.6 179.86-26.5 179.69-24.4 179.69-21.3L179.69-21.3 179.69-7.25Q179.69-5.95 180.26-5.28 180.84-4.6 181.94-4.6L181.94-4.6Q182.44-4.6 183.06-4.75 183.69-4.9 183.88-5.25L183.88-5.25Q184.28-4.75 184.44-4.15 184.59-3.55 184.59-3.1L184.59-3.1Q184.59-1.55 183.11-0.53 181.63 0.5 179.09 0.5ZM169.09-22.55L169.09-22.55 169.13-24.2Q169.19-25.05 169.71-25.43 170.24-25.8 170.94-25.8L170.94-25.8 179.63-25.8Q179.84-25.8 180.71-25.83 181.59-25.85 182.71-25.88 183.84-25.9 184.71-25.93 185.59-25.95 185.78-26L185.78-26 185.74-24.4Q185.69-23.6 185.19-23.18 184.69-22.75 183.99-22.75L183.99-22.75 172.09-22.75Q171.59-22.75 170.59-22.7 169.59-22.65 169.09-22.55ZM204.83-35.65L204.83-35.65Q206.08-35.65 207.16-35.2 208.23-34.75 208.58-33.4L208.58-33.4 217.28-4.1Q217.48-3.45 217.88-2.5 218.28-1.55 218.93-0.85L218.93-0.85Q218.48-0.35 217.53 0.18 216.58 0.7 214.83 0.7L214.83 0.7Q213.23 0.7 212.08 0.03 210.93-0.65 210.63-2L210.63-2 202.53-33 203.23-32.85 196.03-4Q195.88-3.4 195.78-2.83 195.68-2.25 195.68-1.7L195.68-1.7Q195.68-1.1 195.83-0.7 195.98-0.3 196.23-0.05L196.23-0.05Q195.48 0.25 194.61 0.48 193.73 0.7 192.43 0.7L192.43 0.7Q190.43 0.7 189.48 0.03 188.53-0.65 188.53-2.2L188.53-2.2Q188.53-2.85 188.71-3.78 188.88-4.7 189.23-5.75L189.23-5.75 198.93-34.7Q201.83-35.65 204.83-35.65ZM195.73-10.15L195.73-13.85 212.33-13.85 212.33-10.15 195.73-10.15ZM226.23 0.75L226.23 0.75Q224.53 0.75 223.38-0.2 222.23-1.15 222.23-2.8L222.23-2.8 222.23-27.55Q222.23-29 222.06-30.68 221.88-32.35 221.23-34.05L221.23-34.05Q221.68-34.45 222.73-35 223.78-35.55 225.23-35.55L225.23-35.55Q226.93-35.55 228.08-34.63 229.23-33.7 229.23-32.05L229.23-32.05 229.23-7.3Q229.23-5.9 229.41-4.17 229.58-2.45 230.23-0.8L230.23-0.8Q229.78-0.4 228.73 0.18 227.68 0.75 226.23 0.75Z" opacity="1" transform="matrix(1,0,0,1,0,0)" fill="#919591" class="wordmark-text-0" data-fill-palette-color="primary" id="text-0"></path></svg></g></svg></g></svg></g></svg></g><g transform="matrix(1,0,0,1,410.4334233195612,0)"><svg viewBox="0 0 87.32106687400535 87.303881070645" height="87.303881070645" width="87.32106687400535"><g><svg xmlns="http://www.w3.org/2000/svg" xmlns:xlink="http://www.w3.org/1999/xlink" version="1.1" x="0" y="0" viewBox="2 2 508.0999999999999 508" enable-background="new 0 0 512 512" xml:space="preserve" height="87.303881070645" width="87.32106687400535" class="icon-icon-0" data-fill-palette-color="accent" id="icon-0"><g fill="#636365" data-fill-palette-color="accent"><path d="M484.6 123h-127c-6.5 0-12.7 2.4-17.4 6.6L208 248.2c-27 25.8-31.6 65.3-10.7 93.9 7 9.6 16.1 17.3 26.6 22.7H78.2c-42 0-76.2 32.6-76.2 72.6S36.2 510 78.2 510h203.2c6.7 0 13.2-2.6 18-7.1l170.4-162.2h14.9c14 0 25.4-10.8 25.4-24.2V147.1C510 133.8 498.6 123 484.6 123zM459.2 292.3c-6.7 0-13.2 2.6-18 7.1L270.9 461.6H78.2c-14 0-25.4-10.8-25.4-24.2 0-13.3 11.4-24.2 25.4-24.2h161.1c6.7 0 13.2-2.6 18-7.1l92.7-88.3c9.9-9.4 9.9-24.8 0-34.2-9.9-9.4-26-9.4-35.9 0l-37.4 35.6c-11 8.9-29 7-37.5-4.7-6.7-9.3-4.6-23.1 4.4-31.7l124.3-111.6h91.5V292.3z" fill="#636365" data-fill-palette-color="accent"></path><path d="M103.6 195.5c0 0 101.6-72.6 101.6-133 0-33.4-28.4-60.5-63.5-60.5-14.4 0-27.5 4.7-38.1 12.4C93 6.7 79.9 2 65.5 2 30.4 2 2 29.1 2 62.5 2 123 103.6 195.5 103.6 195.5z" fill="#636365" data-fill-palette-color="accent"></path></g></svg></g></svg></g></svg></g><defs></defs></svg><rect width="395.52" height="69.37241495829265" fill="none" stroke="none" visibility="hidden"></rect></g></svg></g></svg>